# xmcd
#
# Track frame offsets: 
#        150
#        19107
#        32119
#        53109
#        75852
#        91098
#        121140
#        150575
#        172582
#        192387
#        207380
#
# Disc length: 3064 seconds
#
# Revision: 0
# Processed by: cddbd v1.5.2PL0 Copyright (c) Steve Scherf et al.
# Submitted via: ExactAudioCopy v0.95b4
#
DISCID=770bf60b
DTITLE=John Lee Hooker - Mr. Lucky
DYEAR=1991
DGENRE=Blues
TTITLE0=Booklet
TTITLE1=I Want To Hug You
TTITLE2=Mr. Lucky
TTITLE3=Backstabbers
TTITLE4=This Is Hip
TTITLE5=I Cover The Waterfront
TTITLE6=Highway
TTITLE7=Stripped Me Naked
TTITLE8=Susie
TTITLE9=Crawling King Snake
TTITLE10=Father Was A Jockey
EXTD=
EXTT0=
EXTT1=
EXTT2=
EXTT3=
EXTT4=
EXTT5=
EXTT6=
EXTT7=
EXTT8=
EXTT9=
EXTT10=
PLAYORDER=
